<svg xmlns="http://www.w3.org/2000/svg" width="23" height="24" viewBox="0 0 23 24">
    <g fill="none" fill-rule="evenodd">
        <path fill="#89CDEF" fill-rule="nonzero" d="M22.823 3.596l-.522.562a.586.586 0 0 1-.817.044l-.358-.31a8.847 8.847 0 0 0-.5-.39C15.73.017 8.706 2.771 7.392 8.686c-.996 4.48 1.346 8.869 5.623 10.309 2.945.992 5.665.483 8.08-1.416.026-.02.16-.136.403-.346a.586.586 0 0 1 .802.03l.513.518a.608.608 0 0 1-.003.856c-.281.28-.441.436-.48.468-2.123 1.788-5.61 2.96-9.27 1.972-4.193-1.12-7.28-4.737-7.772-9.11C4.709 6.673 7.81 2.479 11.69.837a10.41 10.41 0 0 1 10.76 1.589c.052.043.167.15.346.32.239.227.25.608.027.85l-.001.001z"/>
        <path fill="#0E74A7" fill-rule="nonzero" d="M20.227 15.263l.544.57a.608.608 0 0 1-.018.855c-.072.069-.136.128-.194.176-1.609 1.362-4.373 2.2-7.077 1.324-3.238-1.034-5.43-4.095-5.4-7.541.017-3.381 2.238-6.396 5.434-7.408 2.632-.835 5.318-.055 6.943 1.256.085.069.182.156.293.262a.608.608 0 0 1 .015.859l-.545.563a.586.586 0 0 1-.797.044A5.744 5.744 0 0 0 19.14 6c-1.172-.852-2.519-1.23-4.043-1.05a5.476 5.476 0 0 0-3.635 1.962 5.856 5.856 0 0 0 0 7.616 5.592 5.592 0 0 0 2.576 1.728 5.619 5.619 0 0 0 3.118.113 5.606 5.606 0 0 0 2.267-1.15c.238-.201.588-.181.803.044z"/>
        <path fill="#0E74A7" fill-rule="nonzero" d="M5.211 5.586c-1.39 3.128-1.617 6.333-.47 9.572.877 2.48 2.531 4.359 4.696 5.788a11.035 11.035 0 0 0 3.054 1.408.6.6 0 0 1 .422.594l-.004.125a.46.46 0 0 1-.577.433 14.383 14.383 0 0 1-.57-.165c-3.614-1.248-6.243-3.65-7.889-7.207a.875.875 0 0 0-.499-.495c-2.216-.898-3.576-3.18-3.333-5.59.243-2.41 2.031-4.364 4.38-4.787.122-.022.293-.043.512-.065a.276.276 0 0 1 .3.25.283.283 0 0 1-.022.139z"/>
        <path fill="#89CDEF" d="M13.75 22.066h2.31c.327 0 .592.27.592.601v.722a.597.597 0 0 1-.592.601h-2.31a.597.597 0 0 1-.592-.601v-.722c0-.332.265-.601.592-.601z"/>
    </g>
</svg>
