<svg xmlns="http://www.w3.org/2000/svg" width="195" height="48" viewBox="0 0 195 48">
    <g fill="none" fill-rule="evenodd">
        <path fill="#89CDEF" fill-rule="nonzero" d="M46.094 7.17L45.04 8.29a1.194 1.194 0 0 1-1.65.087c-.423-.364-.664-.57-.722-.618a17.839 17.839 0 0 0-1.011-.78C31.77.037 17.583 5.529 14.929 17.32c-2.01 8.933 2.718 17.683 11.356 20.555 5.948 1.978 11.441.963 16.319-2.823.053-.041.324-.271.814-.69a1.194 1.194 0 0 1 1.62.061l1.036 1.032a1.2 1.2 0 0 1-.006 1.706c-.568.558-.89.87-.969.934-4.289 3.563-11.33 5.901-18.723 3.93-8.468-2.23-14.702-9.443-15.697-18.161-1.168-10.56 5.096-18.924 12.933-22.197C31.48-1.624 39.84.24 45.344 4.834c.104.087.336.3.697.64a1.2 1.2 0 0 1 .055 1.694l-.002.002z"/>
        <path fill="#0E74A7" fill-rule="nonzero" d="M40.852 30.431l1.098 1.137a1.2 1.2 0 0 1-.036 1.703 8.22 8.22 0 0 1-.392.353c-3.25 2.714-8.833 4.384-14.294 2.639-6.54-2.063-10.965-8.165-10.905-15.035.034-6.742 4.519-12.752 10.974-14.771 5.316-1.663 10.74-.109 14.022 2.506.171.136.369.31.592.521a1.2 1.2 0 0 1 .032 1.712L40.84 12.32a1.194 1.194 0 0 1-1.61.088 11.58 11.58 0 0 0-.572-.445C36.29 10.264 33.57 9.51 30.493 9.87a11.1 11.1 0 0 0-7.341 3.913 11.561 11.561 0 0 0 0 15.183 11.304 11.304 0 0 0 5.202 3.445c2.037.66 4.218.74 6.298.226 1.57-.375 2.972-1.071 4.222-2.012.102-.076.22-.17.356-.282.48-.4 1.187-.36 1.622.09z"/>
        <path fill="#0E74A7" fill-rule="nonzero" d="M10.524 11.137c-2.806 6.238-3.265 12.628-.948 19.085 1.77 4.943 5.111 8.69 9.483 11.539a22.41 22.41 0 0 0 6.168 2.808c.519.156.868.642.852 1.185l-.007.248a.923.923 0 0 1-1.166.864 29.338 29.338 0 0 1-1.15-.329c-7.3-2.489-12.61-7.28-15.933-14.37a1.757 1.757 0 0 0-1.008-.986A10.816 10.816 0 0 1 .082 20.036 10.804 10.804 0 0 1 8.93 10.49c.246-.043.59-.086 1.033-.13a.555.555 0 0 1 .561.776z"/>
        <path fill="#89CDEF" d="M27.77 43.994h4.665c.661 0 1.197.537 1.197 1.2v1.438c0 .662-.536 1.198-1.197 1.198H27.77c-.66 0-1.196-.536-1.196-1.198v-1.439c0-.662.536-1.199 1.196-1.199z"/>
        <path fill="#0E74A7" d="M57.353 23.62c0-2.07.822-4.072 2.466-6.005 1.821-2.143 4.147-3.215 6.975-3.215 1.773 0 3.49.497 5.15 1.492 1.765 1.052 2.934 2.418 3.506 4.1h-3.832c-1.394-1.528-2.986-2.292-4.775-2.292-1.072 0-2.092.3-3.059.898a6.508 6.508 0 0 0-2.242 2.299c-.56.958-.84 1.963-.84 3.014 0 1.804.624 3.324 1.873 4.562a6.149 6.149 0 0 0 2.007 1.328 5.91 5.91 0 0 0 2.26.467c1.725 0 3.245-.712 4.558-2.135h3.953c-.79 1.852-2.107 3.26-3.953 4.222-1.58.817-3.232 1.225-4.956 1.225-1.45 0-2.958-.469-4.521-1.407-1.354-.809-2.438-1.945-3.252-3.41-.879-1.576-1.318-3.29-1.318-5.143zm19.282 2.475c0-1.464.358-2.774 1.076-3.93 1.321-2.128 3.243-3.191 5.766-3.191 1.007 0 1.94.204 2.798.612.859.409 1.485.973 1.88 1.693v-1.941h2.998V33.13h-2.998V31.24c-.491.687-1.192 1.253-2.103 1.698-.879.429-1.753.643-2.623.643-1.298 0-2.467-.317-3.506-.952-1.04-.635-1.85-1.535-2.43-2.7-.572-1.14-.858-2.418-.858-3.833zm7.458 4.282c1.113 0 2.06-.404 2.841-1.213.75-.776 1.125-1.747 1.125-2.911 0-1.699-.69-2.896-2.068-3.591a4.397 4.397 0 0 0-1.994-.486c-1.572 0-2.736.651-3.494 1.954-.379.639-.568 1.362-.568 2.171 0 1.674.725 2.871 2.176 3.591a4.324 4.324 0 0 0 1.982.485zm9.539-15.637h3.288V33.13h-3.288V14.74zm5.947 0h3.288V33.13H99.58V14.74zm11.71 7.91c.275-2.451 1.354-4.445 3.24-5.981 1.806-1.48 3.889-2.22 6.25-2.22.774 0 1.584.105 2.43.315a8.97 8.97 0 0 1 4.304 2.475c.62.639 1.164 1.375 1.632 2.208h-2.031c-1.04-1.408-2.366-2.35-3.977-2.827a7.944 7.944 0 0 0-2.261-.34c-1.564 0-2.99.41-4.28 1.232a7.418 7.418 0 0 0-2.865 3.354 7.645 7.645 0 0 0-.652 3.142c0 2.176.802 4.012 2.405 5.508A8.178 8.178 0 0 0 118 31.148a7.402 7.402 0 0 0 2.829.564c1.152 0 2.317-.295 3.493-.886 1.129-.566 2.084-1.395 2.865-2.487h2.031c-.975 1.699-2.216 2.98-3.723 3.846-1.467.833-3.022 1.25-4.666 1.25-2.547 0-4.763-.878-6.65-2.633-1.974-1.828-2.961-4.133-2.961-6.915 0-.388.024-.8.073-1.237zm20.552 10.481V19.495h1.704v2.038c.758-1.56 2.08-2.341 3.965-2.341v1.868c-1.354 0-2.446.603-3.276 1.808a3.24 3.24 0 0 0-.58 1.868v8.395h-1.813zm7.422 0V19.544h1.838V33.13h-1.838zm0-15.225V14.74h1.838v3.166h-1.838zm6.516 15.225V21.206h-2.84v-1.662h2.84V14.74h1.837v4.804h3.144v1.662h-3.144V33.13h-1.837zm6.335-6.878c0-2.087.749-3.806 2.248-5.156a7.413 7.413 0 0 1 3.506-1.784 6.62 6.62 0 0 1 1.257-.121c1.83 0 3.43.623 4.8 1.868 1.498 1.375 2.248 3.227 2.248 5.557v.351H153.95c0 .672.193 1.351.58 2.039.653 1.156 1.62 1.945 2.902 2.365.572.194 1.12.291 1.644.291.975 0 1.93-.275 2.865-.825 1-.582 1.66-1.31 1.982-2.183h1.886a7.093 7.093 0 0 1-1.185 2.123 6.927 6.927 0 0 1-3.614 2.365 7.643 7.643 0 0 1-2.043.292c-1.104 0-2.22-.322-3.349-.965a6.721 6.721 0 0 1-2.61-2.626c-.597-1.076-.895-2.273-.895-3.591zm12.282-.922c-.323-1.683-1.261-2.94-2.817-3.773a5.036 5.036 0 0 0-2.406-.607c-.983 0-1.877.23-2.683.692a4.73 4.73 0 0 0-1.91 1.99c-.363.687-.573 1.253-.629 1.698h10.445zm4.328 7.8V19.495h1.704v2.038c.758-1.56 2.08-2.341 3.965-2.341v1.868c-1.354 0-2.446.603-3.276 1.808a3.24 3.24 0 0 0-.58 1.868v8.395h-1.813zm7.422 0V19.544h1.838V33.13h-1.838zm0-15.225V14.74h1.838v3.166h-1.838zm4.388 8.516c0-1.35.335-2.588 1.004-3.712a6.989 6.989 0 0 1 2.78-2.632c1.112-.59 2.269-.886 3.47-.886 2.45 0 4.223.995 5.319 2.984v-2.632h1.789V33.13h-1.79v-2.584c-.515.938-1.293 1.666-2.332 2.184-.951.469-1.995.704-3.131.704-1.169 0-2.33-.31-3.482-.929-1.152-.618-2.045-1.461-2.678-2.529-.632-1.068-.949-2.252-.949-3.555zm1.886-.424c0 2.273.89 3.922 2.672 4.95.822.477 1.672.715 2.55.715 1.524 0 2.825-.542 3.905-1.625 1.04-1.044 1.56-2.249 1.56-3.616 0-1.504-.5-2.757-1.5-3.76-1.095-1.1-2.336-1.65-3.723-1.65-2.079 0-3.663.906-4.75 2.717-.476.785-.714 1.541-.714 2.269z"/>
    </g>
</svg>
